<svg width="21" height="20" viewBox="0 0 21 20" fill="none" xmlns="http://www.w3.org/2000/svg">
<path d="M2.5 12.5002V14C2.5 14.9334 2.5 15.3998 2.68166 15.7563C2.84144 16.0699 3.09623 16.3254 3.40983 16.4852C3.766 16.6667 4.23249 16.6667 5.16409 16.6667H17.5002M2.5 12.5002V4.16666M2.5 12.5002L5.71116 9.82421L5.71382 9.82208C6.29472 9.33799 6.58573 9.09548 6.90129 8.99698C7.27406 8.88061 7.67559 8.89902 8.0363 9.04866C8.34208 9.17551 8.61021 9.44364 9.14647 9.97989L9.15185 9.98527C9.69643 10.5299 9.96944 10.8029 10.2801 10.9294C10.6478 11.0792 11.0571 11.0921 11.4339 10.9671C11.7534 10.8612 12.0452 10.6063 12.6286 10.0958L17.5 5.83332" stroke="#FFD600" stroke-width="2" stroke-linecap="round" stroke-linejoin="round"/>
</svg>
