<svg width="1440" height="820" viewBox="0 0 1440 820" fill="none" xmlns="http://www.w3.org/2000/svg">
<g clip-path="url(#clip0_25_229)">
<path d="M52.912 -97.4567L118.545 -25.9433L23.7727 -4.88026L-71 16.1641L-41.8608 -76.3936L-12.7215 -168.951L52.912 -97.4567Z" fill="white" fill-opacity="0.1"/>
<path d="M195.24 62.7984L130.86 64.1453L161.871 7.72761L192.9 -48.6712L226.269 6.38083L259.638 61.4329L195.24 62.7984Z" fill="white" fill-opacity="0.1"/>
<path d="M1250.99 141.289L1214.7 121.816L1249.72 100.136L1284.71 78.4553L1286.01 119.609L1287.28 160.744L1250.99 141.289Z" fill="white" fill-opacity="0.1"/>
<path d="M1452.29 14.5179L1420.32 40.482L1413.81 -0.166325L1407.3 -40.8146L1445.78 -26.1304L1484.25 -11.4462L1452.29 14.5179Z" fill="white" fill-opacity="0.1"/>
<path d="M475.029 276.815L437.936 294.698L440.986 253.638L444.037 212.597L478.079 235.755L512.122 258.932L475.029 276.815Z" fill="white" fill-opacity="0.1"/>
<path d="M1319.34 -15.2621L1287 40.3885L1254.94 -15.4305L1222.88 -71.2682L1287.28 -71.0998L1351.68 -70.9315L1319.34 -15.2621Z" fill="white" fill-opacity="0.1"/>
<path d="M159.999 147.668L225.633 219.181L130.86 240.245L36.0872 261.289L65.2264 168.731L94.3657 76.1733L159.999 147.668Z" fill="white" fill-opacity="0.1"/>
<path d="M65.2264 510.379L130.86 581.874L36.0872 602.937L-58.6855 624L-29.5463 531.424L-0.407049 438.866L65.2264 510.379Z" fill="white" fill-opacity="0.1"/>
<path d="M552.116 157.582L462.958 196.023L474.224 99.6307L485.49 3.25696L563.382 61.2084L641.255 119.141L552.116 157.582Z" fill="white" fill-opacity="0.1"/>
<path d="M300.792 178.851L275.602 119.609L339.532 127.428L403.463 135.247L364.704 186.67L325.964 238.093L300.792 178.851Z" fill="white" fill-opacity="0.1"/>
<path d="M475.422 389.033L450.25 329.791L514.18 337.61L578.092 345.429L539.352 396.852L500.612 448.275L475.422 389.033Z" fill="white" fill-opacity="0.1"/>
<path d="M181.447 387.686L117.048 389.033L148.078 332.615L179.089 276.216L212.457 331.268L245.826 386.32L181.447 387.686Z" fill="white" fill-opacity="0.1"/>
<path d="M371.759 530.077L307.361 531.424L338.391 475.025L369.401 418.607L402.77 473.659L436.139 528.73L371.759 530.077Z" fill="white" fill-opacity="0.1"/>
<path d="M351.192 354.295L314.903 334.841L349.919 313.161L384.935 291.48L386.207 332.615L387.48 373.768L351.192 354.295Z" fill="white" fill-opacity="0.1"/>
<path d="M595.871 542.946L555.297 549.924L569.539 511.296L583.782 472.686L610.114 504.318L636.464 535.95L595.871 542.946Z" fill="white" fill-opacity="0.1"/>
<path d="M770.108 366.286L835.742 437.8L740.969 458.863L646.196 479.926L675.335 387.349L704.475 294.791L770.108 366.286Z" fill="white" fill-opacity="0.1"/>
<path d="M1507.37 404.129L1573 475.623L1478.23 496.686L1383.45 517.749L1412.59 425.192L1441.73 332.615L1507.37 404.129Z" fill="white" fill-opacity="0.1"/>
<path d="M718.679 99.6307L693.508 40.3885L757.438 48.2077L821.35 56.0455L782.61 107.469L743.87 158.892L718.679 99.6307Z" fill="white" fill-opacity="0.1"/>
<path d="M922.804 74.471L977.433 40.3885L979.641 104.719L981.868 169.068L925.012 138.82L868.156 108.554L922.804 74.471Z" fill="white" fill-opacity="0.1"/>
<path d="M1425.77 84.2543L1480.42 50.1718L1482.63 114.521L1484.83 178.851L1428 148.603L1371.14 118.355L1425.77 84.2543Z" fill="white" fill-opacity="0.1"/>
<path d="M910.901 397.469L885.711 338.227L949.641 346.046L1013.57 353.865L974.813 405.288L936.073 456.711L910.901 397.469Z" fill="white" fill-opacity="0.1"/>
<path d="M791.555 606.304L727.157 607.651L758.187 551.233L789.216 494.834L822.566 549.887L855.935 604.939L791.555 606.304Z" fill="white" fill-opacity="0.1"/>
<path d="M860.82 225.298L885.711 258.109L844.856 263.253L803.982 268.397L819.965 230.461L835.929 192.506L860.82 225.298Z" fill="white" fill-opacity="0.1"/>
<path d="M1032.19 275.318L995.904 255.864L1030.92 234.184L1065.94 212.503L1067.21 253.638L1068.48 294.791L1032.19 275.318Z" fill="white" fill-opacity="0.1"/>
<path d="M985.836 532.976L949.547 513.522L984.563 491.842L1019.56 470.161L1020.85 511.296L1022.12 552.449L985.836 532.976Z" fill="white" fill-opacity="0.1"/>
<path d="M1328.6 412.153L1296.64 438.118L1290.1 397.469L1283.59 356.821L1322.07 371.505L1360.55 386.189L1328.6 412.153Z" fill="white" fill-opacity="0.1"/>
<path d="M656.414 261.495L619.303 279.378L622.372 238.318L625.422 197.258L659.465 220.435L693.508 243.612L656.414 261.495Z" fill="white" fill-opacity="0.1"/>
<path d="M351.191 46.2623L314.098 64.1453L317.149 23.0854L320.218 -17.9558L354.261 5.22107L388.285 28.3792L351.191 46.2623Z" fill="white" fill-opacity="0.1"/>
<path d="M181.447 503.084L144.353 520.967L147.404 479.926L150.454 438.866L184.497 462.043L218.54 485.201L181.447 503.084Z" fill="white" fill-opacity="0.1"/>
<path d="M1132.94 364.322L1217.13 316.023L1216.89 413.051L1216.63 510.099L1132.67 461.351L1048.74 412.621L1132.94 364.322Z" fill="white" fill-opacity="0.1"/>
<path d="M1054.82 56.4009L1020.03 -34.1927L1115.92 -19.0221L1211.82 -3.83273L1150.71 71.5715L1089.61 146.995L1054.82 56.4009Z" fill="white" fill-opacity="0.1"/>
<path d="M1319.36 274.888L1255.24 268.696L1292.65 216.301L1330.06 163.905L1356.77 222.474L1383.45 281.061L1319.36 274.888Z" fill="white" fill-opacity="0.1"/>
<path d="M1162 238.112L1128.24 214.542L1165.54 197.108L1202.85 179.655L1199.3 220.678L1195.76 261.682L1162 238.112Z" fill="white" fill-opacity="0.1"/>
</g>
<defs>
<clipPath id="clip0_25_229">
<rect width="1440" height="820" fill="white"/>
</clipPath>
</defs>
</svg>
