<svg width="25" height="24" viewBox="0 0 25 24" fill="none" xmlns="http://www.w3.org/2000/svg">
<g clip-path="url(#clip0_7_233)">
<path d="M24.022 6.18547C23.8863 5.67489 23.6189 5.20889 23.2465 4.83413C22.8741 4.45936 22.4099 4.18897 21.9002 4.05002C20.0238 3.54547 12.5238 3.54547 12.5238 3.54547C12.5238 3.54547 5.0238 3.54547 3.14744 4.05002C2.63773 4.18897 2.17346 4.45936 1.80109 4.83413C1.42872 5.20889 1.16131 5.67489 1.02562 6.18547C0.523804 8.07002 0.523804 12 0.523804 12C0.523804 12 0.523804 15.93 1.02562 17.8146C1.16131 18.3251 1.42872 18.7911 1.80109 19.1659C2.17346 19.5407 2.63773 19.8111 3.14744 19.95C5.0238 20.4546 12.5238 20.4546 12.5238 20.4546C12.5238 20.4546 20.0238 20.4546 21.9002 19.95C22.4099 19.8111 22.8741 19.5407 23.2465 19.1659C23.6189 18.7911 23.8863 18.3251 24.022 17.8146C24.5238 15.93 24.5238 12 24.5238 12C24.5238 12 24.5238 8.07002 24.022 6.18547Z" fill="#FF0302"/>
<path d="M10.0693 15.5687V8.4314L16.342 12L10.0693 15.5687Z" fill="#FEFEFE"/>
</g>
<defs>
<clipPath id="clip0_7_233">
<rect width="24" height="24" fill="white" transform="translate(0.5)"/>
</clipPath>
</defs>
</svg>
